<?xml version="1.0" encoding="UTF-8"?>
<svg width="14px" height="14px" viewBox="0 0 14 14" version="1.1" xmlns="http://www.w3.org/2000/svg" xmlns:xlink="http://www.w3.org/1999/xlink">
    <title>6D192661-1629-460F-8025-B192307309DD</title>
    <defs>
        <path d="M11.9875,0.2625 C11.6375,-0.0875 11.1125,-0.0875 10.7625,0.2625 L6.125,4.9 L1.4875,0.2625 C1.1375,-0.0875 0.6125,-0.0875 0.2625,0.2625 C-0.0875,0.6125 -0.0875,1.1375 0.2625,1.4875 L4.9,6.125 L0.2625,10.7625 C-0.0875,11.1125 -0.0875,11.6375 0.2625,11.9875 C0.4375,12.1625 0.6125,12.25 0.875,12.25 C1.1375,12.25 1.3125,12.1625 1.4875,11.9875 L6.125,7.35 L10.7625,11.9875 C10.9375,12.1625 11.2,12.25 11.375,12.25 C11.55,12.25 11.8125,12.1625 11.9875,11.9875 C12.3375,11.6375 12.3375,11.1125 11.9875,10.7625 L7.35,6.125 L11.9875,1.4875 C12.3375,1.1375 12.3375,0.6125 11.9875,0.2625 L11.9875,0.2625 Z" id="path-1"></path>
    </defs>
    <g id="Page-1" stroke="none" stroke-width="1" fill="none" fill-rule="evenodd">
        <g id="08-Public-Forum-app-notifications" transform="translate(-457.000000, -1278.000000)">
            <g id="Group-7" transform="translate(55.000000, 1260.000000)">
                <g id="icon/x-mark" transform="translate(402.875000, 18.875000)">
                    <mask id="mask-2" fill="white">
                        <use xlink:href="#path-1"></use>
                    </mask>
                    <use id="icon-color" fill="#AAAAAA" xlink:href="#path-1"></use>
                </g>
            </g>
        </g>
    </g>
</svg>