<?xml version="1.0" encoding="UTF-8"?>
<svg width="15px" height="9px" viewBox="0 0 15 9" version="1.1" xmlns="http://www.w3.org/2000/svg" xmlns:xlink="http://www.w3.org/1999/xlink">
    <!-- Generator: sketchtool 64 (101010) - https://sketch.com -->
    <title>BA721049-92A5-4B23-A8F6-2032B8716700</title>
    <desc>Created with sketchtool.</desc>
    <g id="Symbols" stroke="none" stroke-width="1" fill="none" fill-rule="evenodd">
        <g id="UI-Kit/Forms/textbox/empty-select" transform="translate(-369.000000, -35.000000)" fill="#137d60" fill-rule="nonzero">
            <path d="M375.791361,43.28828 L369.706694,37.177158 C369.31204,36.7807881 369.301056,36.1434287 369.681818,35.7336957 C370.044041,35.3439123 370.653663,35.3215702 371.043446,35.6837931 C371.052575,35.6922763 371.061538,35.7009358 371.07033,35.7097667 L376.5,41.1630435 L376.5,41.1630435 L381.92967,35.7097667 C382.305108,35.3326959 382.915137,35.3313726 383.292208,35.7068111 C383.301039,35.7156038 383.309699,35.724567 383.318182,35.7336957 C383.698944,36.1434287 383.68796,36.7807881 383.293306,37.177158 L377.208639,43.28828 C376.818963,43.6796505 376.185799,43.6810239 375.794429,43.2913477 C375.793404,43.2903273 375.792381,43.2893048 375.791361,43.28828 Z" id="icon-color-copy"></path>
        </g>
    </g>
</svg>