<?xml version="1.0" encoding="UTF-8"?>
<svg width="16px" height="4px" viewBox="0 0 16 4" version="1.1" xmlns="http://www.w3.org/2000/svg" xmlns:xlink="http://www.w3.org/1999/xlink">
    <!-- Generator: sketchtool 64 (101010) - https://sketch.com -->
    <title>EB58633D-44F9-4A32-AC0C-53364BBB6557</title>
    <desc>Created with sketchtool.</desc>
    <defs>
        <path d="M8,6 C9.105,6 10,6.895 10,8 C10,9.105 9.105,10 8,10 C6.895,10 6,9.105 6,8 C6,6.895 6.895,6 8,6 Z M2,6 C3.105,6 4,6.895 4,8 C4,9.105 3.105,10 2,10 C0.895,10 0,9.105 0,8 C0,6.895 0.895,6 2,6 Z M14,6 C15.105,6 16,6.895 16,8 C16,9.105 15.105,10 14,10 C12.895,10 12,9.105 12,8 C12,6.895 12.895,6 14,6 Z" id="path-1"></path>
    </defs>
    <g id="Symbols" stroke="none" stroke-width="1" fill="none" fill-rule="evenodd">
        <g id="UI-Kit/Icons/ui/dots-horizontal" transform="translate(0.000000, -6.000000)">
            <mask id="mask-2" fill="white">
                <use xlink:href="#path-1"></use>
            </mask>
            <use id="icon-color" fill="#2A2A2A" xlink:href="#path-1"></use>
        </g>
    </g>
</svg>